# xmcd CD database file
#
# Track frame offsets:
#	150
#	10945
#	29132
#	48594
#	67323
#	86609
#	99226
#	116895
#	131285
#	145033
#	163350
#	178466
#	198500
#
# Disc length: 2850 seconds
#
# Revision: 0
# Processed by: cddbd v1.5.2PL0 Copyright (c) Steve Scherf et al.
# Submitted via: CDex 1.51
#
DISCID=c50b200d
DTITLE=Various Artist - Back Porch Music Vol.12
DYEAR=2009
DGENRE=Country
TTITLE0=Laura Boosinger and Josh Gofurth - Cluck Old Hen
TTITLE1=The Greencards - Rivertown
TTITLE2=Martin Simpson - Louisiana 1927
TTITLE3=Jim Watson - Uncloudy Day
TTITLE4=Butch Baldassari and David Schnaufer - Cold Frosty Morning
TTITLE5=Willie Nelson and Asleep At the Wheel - Hesitation Blues
TTITLE6=Grada - Tready Softluy
TTITLE7=Dock Walsch - In The Pines
TTITLE8=Steep Canyon Rangers - A Ramblin' Man Is A Ramblin' Man
TTITLE9=Bill Jones - From My Window
TTITLE10=Sweet Potato Pie - Clinch Mountain Backstep
TTITLE11=Rory Block - Death Letter
TTITLE12=Big Medecine - What Does The Lonesome Dove Say?
EXTD=YEAR: 2009
EXTT0=
EXTT1=
EXTT2=
EXTT3=
EXTT4=
EXTT5=
EXTT6=
EXTT7=
EXTT8=
EXTT9=
EXTT10=
EXTT11=
EXTT12=
PLAYORDER=
